<svg width="11" height="11" viewBox="0 0 11 11" fill="none" xmlns="http://www.w3.org/2000/svg">
<path fill-rule="evenodd" clip-rule="evenodd" d="M5.00002 9.00303C4.60566 9.00303 4.21516 8.92536 3.85082 8.77444C3.48648 8.62353 3.15544 8.40233 2.87658 8.12348C2.59773 7.84462 2.37653 7.51357 2.22561 7.14923C2.0747 6.78489 1.99702 6.39439 1.99702 6.00003C1.99702 5.60567 2.0747 5.21518 2.22561 4.85083C2.37653 4.48649 2.59773 4.15545 2.87658 3.87659C3.15544 3.59774 3.48648 3.37654 3.85082 3.22562C4.21516 3.07471 4.60566 2.99703 5.00002 2.99703C5.79647 2.99703 6.56029 3.31342 7.12346 3.87659C7.68663 4.43976 8.00302 5.20359 8.00302 6.00003C8.00302 6.79648 7.68663 7.5603 7.12346 8.12348C6.56029 8.68665 5.79647 9.00303 5.00002 9.00303ZM5.00002 1.37403C3.77313 1.37403 2.59649 1.86141 1.72895 2.72896C0.861404 3.5965 0.374023 4.77314 0.374023 6.00003C0.374023 7.22692 0.861404 8.40357 1.72895 9.27111C2.59649 10.1387 3.77313 10.626 5.00002 10.626C6.22691 10.626 7.40355 10.1387 8.2711 9.27111C9.13864 8.40357 9.62602 7.22692 9.62602 6.00003C9.62602 4.77314 9.13864 3.5965 8.2711 2.72896C7.40355 1.86141 6.22691 1.37403 5.00002 1.37403ZM10.9718 1.29003C10.9718 1.58005 10.8566 1.85818 10.6515 2.06325C10.4465 2.26833 10.1683 2.38353 9.87832 2.38353C9.58831 2.38353 9.31017 2.26833 9.1051 2.06325C8.90003 1.85818 8.78482 1.58005 8.78482 1.29003C8.78482 1.00002 8.90003 0.721883 9.1051 0.516812C9.31017 0.311741 9.58831 0.196533 9.87832 0.196533C10.1683 0.196533 10.4465 0.311741 10.6515 0.516812C10.8566 0.721883 10.9718 1.00002 10.9718 1.29003Z" fill="black"/>
</svg>
